<?xml version="1.0" encoding="UTF-8"?>
<svg version="1.1" xmlns="http://www.w3.org/2000/svg" width="1798" height="515">
<path d="M0 0 C39.92309851 17.63555192 80.50331836 33.27690057 122.04650879 46.66894531 C124.18256338 47.35995445 126.31633323 48.057587 128.44946289 48.75756836 C153.44065081 56.95025636 178.72657897 63.88202158 204.21020508 70.36889648 C205.06984863 70.58825867 205.92949219 70.80762085 206.81518555 71.03363037 C303.37561281 95.60972328 403.26968165 110.11922664 502.83163452 114.26889038 C504.55247367 114.34124242 506.27318366 114.41668874 507.99380493 114.49404907 C529.21364536 115.43557835 550.41116191 115.57107445 571.64770508 115.55639648 C572.5156432 115.55612961 573.38358131 115.55586273 574.27782059 115.55558777 C601.96486309 115.54492487 629.57851994 115.2862231 657.21020508 113.36889648 C658.60305725 113.27415039 658.60305725 113.27415039 660.02404785 113.17749023 C729.57562729 108.41244353 799.45709921 99.08948986 866.21020508 78.36889648 C867.32218262 78.02391113 868.43416016 77.67892578 869.57983398 77.32348633 C899.08242269 68.05705498 928.86857795 56.77242728 955.16186523 40.27685547 C956.81227199 39.25338759 958.50747242 38.30272219 960.21020508 37.36889648 C960.87020508 37.69889648 961.53020508 38.02889648 962.21020508 38.36889648 C910.51638718 88.94774968 833.76972371 114.78603049 765.21020508 132.36889648 C764.4594873 132.56205444 763.70876953 132.7552124 762.93530273 132.95422363 C710.50712305 146.3975622 656.74374761 154.65785385 602.82897949 159.14886475 C600.22331211 159.36779522 597.61865661 159.59675111 595.01391602 159.82641602 C532.67084002 165.20134654 468.2583797 164.87691131 405.92205811 159.59674072 C403.1758086 159.36600656 400.42882775 159.14708265 397.68139648 158.9309082 C309.1386638 151.90213877 220.6999847 135.80664989 112.44677734 102.10595703 C110.24176592 101.37929733 108.035594 100.65624378 105.8293457 99.93334961 C72.27767953 88.90525564 39.2518969 76.23960124 7.21020508 61.36889648 C6.03554688 60.82555664 4.86088867 60.2822168 3.65063477 59.72241211 C-7.0563999 54.76621919 -17.74214842 49.76434131 -28.40281677 44.70918274 C-93.96147806 13.63660285 -163.94104696 -11.79020712 -236.78979492 -17.63110352 C-237.84046143 -17.717229 -238.89112793 -17.80335449 -239.97363281 -17.89208984 C-250.06622332 -18.647336 -260.11027094 -18.83341151 -270.22729492 -18.81860352 C-271.06083496 -18.81766693 -271.894375 -18.81673035 -272.75317383 -18.81576538 C-321.53361516 -18.69754153 -369.80580324 -9.14307318 -413.78979492 12.36889648 C-414.6819873 12.80008789 -415.57417969 13.2312793 -416.4934082 13.67553711 C-449.36057936 29.69935761 -476.26913744 51.50691334 -501.78979492 77.36889648 C-502.11979492 76.70889648 -502.44979492 76.04889648 -502.78979492 75.36889648 C-501.59572163 73.16799534 -500.35941828 71.13599832 -498.97729492 69.05639648 C-498.56785645 68.43265137 -498.15841797 67.80890625 -497.73657227 67.16625977 C-490.35765539 56.07408149 -482.03774165 45.95759875 -472.78979492 36.36889648 C-472.12383301 35.67570312 -471.45787109 34.98250977 -470.77172852 34.26831055 C-461.31440926 24.47556551 -451.74167023 15.45274111 -440.78979492 7.36889648 C-439.84491211 6.62897461 -438.9000293 5.88905273 -437.92651367 5.12670898 C-414.42670329 -13.14008692 -387.61380323 -26.36935124 -359.78979492 -36.63110352 C-359.00121094 -36.9256543 -358.21262695 -37.22020508 -357.40014648 -37.52368164 C-329.31788871 -47.88752066 -299.52479926 -53.06822268 -269.78979492 -55.63110352 C-268.6012793 -55.74325195 -267.41276367 -55.85540039 -266.18823242 -55.97094727 C-178.5641424 -62.93887599 -89.63492773 -39.14932263 0 0 Z " fill="#5C89AF" transform="translate(625.789794921875,288.631103515625)"/>
<path d="M0 0 C14.375625 -0.061875 28.75125 -0.12375 43.5625 -0.1875 C48.07236572 -0.21481201 52.58223145 -0.24212402 57.22875977 -0.27026367 C62.8104248 -0.28381348 62.8104248 -0.28381348 65.43785095 -0.28633118 C67.24138115 -0.29088541 69.04490323 -0.30132509 70.84837341 -0.31672668 C91.38665131 -0.48308771 110.99633313 1.6277749 127 16 C134.16626309 24.23389004 136.58270758 33.01195407 136.28125 43.7890625 C135.25145371 55.54590344 129.79173709 62.85558059 121.125 70.45703125 C118.55895508 72.32024402 115.86199734 73.64624274 113 75 C113.845625 75.4125 114.69125 75.825 115.5625 76.25 C128.14807426 82.65720144 135.5406986 89.71954091 140.109375 103.296875 C142.68208647 113.99393849 142.01439482 126.14167137 137 136 C132.18170635 143.86799011 126.08901929 148.72593711 118 153 C117.10796875 153.47308594 116.2159375 153.94617188 115.296875 154.43359375 C100.07074 161.60008467 82.59199857 161.43877325 66.11328125 161.29296875 C64.405073 161.28853952 62.69686063 161.28549036 60.98864746 161.28381348 C54.76320153 161.26829774 48.53784363 161.22641629 42.3125 161.1875 C28.349375 161.125625 14.38625 161.06375 0 161 C0 107.87 0 54.74 0 0 Z M43 33 C43 42.9 43 52.8 43 63 C48.2844936 63.09212676 53.5661715 63.17167111 58.85083008 63.21972656 C60.64617382 63.23977001 62.44145287 63.26701251 64.23657227 63.30175781 C66.8258465 63.35059849 69.4142534 63.3730412 72.00390625 63.390625 C72.79898087 63.41127014 73.59405548 63.43191528 74.41322327 63.45318604 C80.08620625 63.45544045 83.31638508 62.22646532 88 59 C91.62031033 55.01765863 92.30321595 51.3534346 92.21484375 45.9921875 C91.77532524 41.91665218 89.63816085 39.65693029 86.875 36.8125 C78.51756099 31.54367975 67.94313729 32.76377387 58.4375 32.875 C56.93685494 32.88505077 55.43620335 32.89417291 53.93554688 32.90234375 C50.29006879 32.92247339 46.64551196 32.96164862 43 33 Z M43 95 C43 105.56 43 116.12 43 127 C48.39027803 127.09227295 53.77777174 127.17177317 59.16821289 127.21972656 C60.99838593 127.23973374 62.82849592 127.26694851 64.65844727 127.30175781 C67.30240512 127.35076003 69.94551165 127.37307761 72.58984375 127.390625 C73.39646957 127.41127014 74.2030954 127.43191528 75.03416443 127.45318604 C81.50195399 127.45569084 87.76930164 126.00745702 92.63121033 121.48150635 C96.13872219 117.36484754 97.37216646 114.60012197 97.2734375 109.16015625 C96.80832735 105.48578607 95.42224681 102.78240595 93 100 C88.41382922 96.48854673 83.68820204 94.86789545 77.96582031 94.88647461 C77.18531311 94.88655014 76.40480591 94.88662567 75.60064697 94.88670349 C74.76821472 94.89186478 73.93578247 94.89702606 73.078125 94.90234375 C72.21813904 94.9037587 71.35815308 94.90517365 70.47210693 94.90663147 C67.73136891 94.91221903 64.99071324 94.92476925 62.25 94.9375 C60.3893241 94.94251661 58.52864691 94.94707923 56.66796875 94.95117188 C52.11192208 94.96133255 47.55605299 94.98091039 43 95 Z " fill="#5C89AF" transform="translate(0,1)"/>
<path d="M0 0 C1.875 1.46484375 1.875 1.46484375 4.875 4.46484375 C5.205 0.50484375 5.535 -3.45515625 5.875 -7.53515625 C19.075 -7.53515625 32.275 -7.53515625 45.875 -7.53515625 C45.875 45.26484375 45.875 98.06484375 45.875 152.46484375 C32.675 152.46484375 19.475 152.46484375 5.875 152.46484375 C5.545 134.64484375 5.215 116.82484375 4.875 98.46484375 C2.235 100.77484375 -0.405 103.08484375 -3.125 105.46484375 C-6.13671875 107.20703125 -6.13671875 107.20703125 -8.8125 108.33984375 C-9.70324219 108.72914063 -10.59398437 109.1184375 -11.51171875 109.51953125 C-25.02743449 114.40862424 -40.7604487 111.97549648 -53.56640625 106.40234375 C-66.47217269 99.93823812 -74.62224318 89.06950447 -79.47265625 75.76953125 C-81.39156394 69.40068351 -82.84687132 63.11675478 -83.125 56.46484375 C-83.1765625 55.60117188 -83.228125 54.7375 -83.28125 53.84765625 C-83.84585907 36.48592721 -79.46720885 19.96702056 -68.3125 6.40234375 C-50.33567637 -11.92422353 -20.86644428 -14.46075275 0 0 Z M-36.4375 30.52734375 C-42.52814163 38.50116427 -44.20152671 47.64481964 -43.125 57.46484375 C-41.63149222 65.5068087 -38.65456742 71.68624812 -32.1875 76.77734375 C-25.61213287 80.40050523 -19.3549515 81.68421313 -11.98046875 79.96484375 C-4.06878131 77.30240209 0.0423688 72.84163404 3.89453125 65.6484375 C7.2873386 58.09234464 7.06192171 47.51042557 4.875 39.58984375 C2.28087997 33.12901649 -2.56557936 28.08909147 -8.375 24.40234375 C-18.62563322 21.83968544 -28.82591298 22.63103403 -36.4375 30.52734375 Z " fill="#5C89AF" transform="translate(978.125,51.53515625)"/>
<path d="M0 0 C12.87 0 25.74 0 39 0 C39 53.46 39 106.92 39 162 C26.13 162 13.26 162 0 162 C-0.33 157.71 -0.66 153.42 -1 149 C-1.94875 150.051875 -2.8975 151.10375 -3.875 152.1875 C-11.43657901 159.74907901 -21.50219483 163.18995959 -32.06689453 163.38037109 C-48.43538298 163.3460032 -61.87153633 159.33812774 -74.125 148.0234375 C-88.72356134 132.26915672 -89.73663835 112.49478307 -89.17480469 92.22705078 C-88.55771727 80.83506551 -84.37138009 71.36796525 -78 62 C-77.60039062 61.39671875 -77.20078125 60.7934375 -76.7890625 60.171875 C-70.06560266 51.11189366 -57.8083742 45.31042302 -47 43 C-32.48881126 41.87504151 -18.50246955 41.92783159 -6.71875 51.4375 C-4.7510487 53.22631936 -2.88038867 55.11961133 -1 57 C-0.67 38.19 -0.34 19.38 0 0 Z M-44.4375 83.625 C-49.14725353 90.70964341 -51.07838362 99.5769496 -50 108 C-48.00812875 117.49747306 -43.97100255 124.35898281 -36 130 C-30.16564472 132.85235147 -23.49567592 133.15151677 -17.34375 131.125 C-10.18675619 127.84830404 -5.27802787 123.4870325 -2.1875 116.1875 C0.72321422 107.17814645 0.88201397 97.49294199 -3.00390625 88.73828125 C-6.72011353 82.29930825 -11.87364849 77.33322027 -19 75 C-28.98365884 73.65848997 -37.80201107 75.70154147 -44.4375 83.625 Z " fill="#5C89AF" transform="translate(588,0)"/>
<path d="M0 0 C0 3 0 3 -1.35424805 4.39111328 C-2.29844604 5.09856689 -2.29844604 5.09856689 -3.26171875 5.8203125 C-3.96184082 6.35108398 -4.66196289 6.88185547 -5.38330078 7.42871094 C-6.52387939 8.26837402 -6.52387939 8.26837402 -7.6875 9.125 C-8.46335449 9.70540039 -9.23920898 10.28580078 -10.03857422 10.88378906 C-12.3492096 12.60308827 -14.67125046 14.30533877 -17 16 C-17.6069873 16.4424707 -18.21397461 16.88494141 -18.83935547 17.34082031 C-27.24543622 23.4205498 -36.00261177 28.85420691 -45 34 C-46.25006836 34.71929687 -46.25006836 34.71929687 -47.52539062 35.453125 C-127.14705828 80.91841756 -222.28588069 99.69972274 -359 112 C-359.7773349 112.04805786 -360.5546698 112.09611572 -361.3555603 112.14562988 C-380.57150339 113.30703438 -399.81891745 113.24557223 -419.0625 113.25 C-419.9442477 113.25044186 -420.82599541 113.25088371 -421.73446274 113.25133896 C-452.58085384 113.25941991 -483.24259119 112.53264709 -514 110 C-515.56678497 109.87271515 -515.56678497 109.87271515 -517.16522217 109.74285889 C-597.45642406 103.16606867 -677.16356628 88.87173218 -754.3125 65.5 C-755.39829346 65.17378662 -756.48408691 64.84757324 -757.6027832 64.51147461 C-758.57562256 64.20862549 -759.54846191 63.90577637 -760.55078125 63.59375 C-761.39294189 63.33271484 -762.23510254 63.07167969 -763.1027832 62.80273438 C-765 62 -765 62 -766 60 C-759.29747143 60.67827034 -752.70243058 61.66786042 -746.06640625 62.8203125 C-743.89509751 63.19145581 -741.72370707 63.56212147 -739.55224609 63.93237305 C-737.84618195 64.22402847 -737.84618195 64.22402847 -736.10565186 64.52157593 C-643.99514153 80.20865385 -550.90112687 89.85396489 -457.42315674 90.97070312 C-455.03579745 90.9995672 -452.64852709 91.03279889 -450.26123047 91.06640625 C-355.68910472 92.30899916 -260.06188648 84.50986522 -28 16 C-27.05423096 15.51152588 -27.05423096 15.51152588 -26.08935547 15.01318359 C-17.14011582 10.38628909 -8.50944011 5.39553032 0 0 Z " fill="#5AAA3F" transform="translate(1567,402)"/>
<path d="M0 0 C8.52301607 7.80734296 13.13709623 18.74144696 13.78151321 30.19940567 C13.9535471 35.85322827 13.90138222 41.50850778 13.8671875 47.1640625 C13.86345128 48.9882288 13.86060719 50.81239713 13.85861206 52.63656616 C13.85102355 57.40734526 13.83141681 62.17800004 13.8092041 66.94873047 C13.78501843 72.68911674 13.7759419 78.42954487 13.76429749 84.16996765 C13.74498911 92.86339788 13.70663333 101.55655605 13.671875 110.25 C0.801875 110.25 -12.068125 110.25 -25.328125 110.25 C-25.36550781 105.60164063 -25.40289062 100.95328125 -25.44140625 96.1640625 C-25.47171769 93.20178736 -25.50288612 90.23957 -25.53710938 87.27734375 C-25.59123114 82.58580606 -25.64234783 77.89438267 -25.67456055 73.20263672 C-25.70076015 69.41580905 -25.74127685 65.62936994 -25.79131126 61.84278488 C-25.80786833 60.40531662 -25.81945155 58.96778133 -25.82573891 57.53023148 C-25.51415841 44.04579945 -25.51415841 44.04579945 -31.07221985 32.28872681 C-36.20890733 27.60453205 -40.63932683 26.8863615 -47.4765625 26.9765625 C-54.38190223 27.63871836 -58.72543612 31.11498685 -63.1015625 36.2734375 C-66.0015362 40.94664353 -66.58478262 45.57921277 -66.64697266 50.98974609 C-66.66204109 51.95666382 -66.66204109 51.95666382 -66.67741394 52.94311523 C-66.70806544 55.05321438 -66.72523005 57.16318774 -66.7421875 59.2734375 C-66.76091374 60.74460926 -66.78048822 62.21577045 -66.8008728 63.68692017 C-66.85204649 67.54357651 -66.89175078 71.40026761 -66.92901611 75.25708008 C-66.97621502 79.89284933 -67.03774916 84.52844807 -67.09686279 89.16407776 C-67.184895 96.19264912 -67.25478762 103.22119078 -67.328125 110.25 C-80.528125 110.25 -93.728125 110.25 -107.328125 110.25 C-107.328125 71.31 -107.328125 32.37 -107.328125 -7.75 C-94.128125 -7.75 -80.928125 -7.75 -67.328125 -7.75 C-66.833125 -0.325 -66.833125 -0.325 -66.328125 7.25 C-65.008125 5.6 -63.688125 3.95 -62.328125 2.25 C-44.56486324 -12.9801763 -18.76235668 -14.10324797 0 0 Z " fill="#5C89AF" transform="translate(469.328125,51.75)"/>
<path d="M0 0 C12.87 0 25.74 0 39 0 C39.05607422 7.09822266 39.05607422 7.09822266 39.11328125 14.33984375 C39.14358621 17.35224875 39.17475044 20.36459646 39.20898438 23.37695312 C39.26314425 28.14979025 39.31425994 32.92251407 39.34643555 37.69555664 C39.37260018 41.54721582 39.41309338 45.39849071 39.46318626 49.24991035 C39.47976662 50.71332553 39.49133555 52.17680703 39.49761391 53.64030266 C39.35133911 66.6285218 39.35133911 66.6285218 44.68359375 78.15625 C45.55177734 78.82140625 45.55177734 78.82140625 46.4375 79.5 C47.01371094 79.9640625 47.58992188 80.428125 48.18359375 80.90625 C52.69155704 83.62072252 57.9519161 83.64263278 63.01953125 82.57421875 C68.62828401 80.82617535 71.88904643 77.9306118 75 73 C78.49956026 65.02266972 78.47239935 56.8081275 78.51171875 48.2421875 C78.52860065 46.84398865 78.5467555 45.44580466 78.56611633 44.04763794 C78.61324235 40.40145513 78.64329167 36.75533253 78.66955566 33.10894775 C78.6995521 29.37459503 78.74585918 25.6404451 78.79101562 21.90625 C78.87813831 14.60415309 78.93840212 7.30253464 79 0 C91.87 0 104.74 0 118 0 C118 38.94 118 77.88 118 118 C105.13 118 92.26 118 79 118 C78.67 112.72 78.34 107.44 78 102 C77.030625 103.19625 76.06125 104.3925 75.0625 105.625 C68.27037197 113.33092839 60.15098554 118.3335445 49.79638672 119.18017578 C35.46154403 119.97513128 23.45727929 118.96808719 12.19140625 109.203125 C3.71540583 100.68179838 -0.10146517 89.96432267 -0.12442017 78.04714966 C-0.12082489 77.279664 -0.11722961 76.51217834 -0.11352539 75.72143555 C-0.11367142 74.90140549 -0.11381744 74.08137543 -0.1139679 73.23649597 C-0.1132734 70.53654296 -0.1055027 67.83665965 -0.09765625 65.13671875 C-0.09579043 63.26056455 -0.0943673 61.38440987 -0.09336853 59.508255 C-0.0895563 54.577979 -0.07973707 49.6477326 -0.06866455 44.71746826 C-0.05662084 38.79780438 -0.05204203 32.87813058 -0.04621124 26.95845795 C-0.03652463 17.97228473 -0.017359 8.98617643 0 0 Z " fill="#5C89AF" transform="translate(1050,44)"/>
<path d="M0 0 C1.11697266 -0.020625 2.23394531 -0.04125 3.38476562 -0.0625 C18.18229158 -0.13112621 32.66863781 3.88966282 43.6328125 14.28515625 C58.76566907 30.76097195 60.4375 49.67828651 60.4375 71.25 C33.7075 71.25 6.9775 71.25 -20.5625 71.25 C-15.83481344 79.75983582 -12.06375928 85.79623019 -2.78125 88.77734375 C6.05934292 90.66063907 14.32611936 89.06388765 22.4375 85.25 C25.64562256 83.12791326 28.57842685 80.82027788 31.4375 78.25 C36.67958645 80.55090178 40.24017066 84.64492207 44.25 88.625 C45.05115234 89.39328125 45.85230469 90.1615625 46.67773438 90.953125 C47.42990234 91.69820313 48.18207031 92.44328125 48.95703125 93.2109375 C49.99500854 94.22873291 49.99500854 94.22873291 51.05395508 95.26708984 C52.4375 97.25 52.4375 97.25 52.26489258 99.37036133 C48.62247338 107.64506932 38.30333193 112.49976518 30.34375 115.80859375 C10.69993183 123.35006949 -12.62756413 122.26059398 -31.74609375 113.7578125 C-45.73226777 106.27006885 -54.77033063 93.92042222 -59.4375 78.9375 C-63.72479042 59.61917352 -60.70233946 40.07739895 -50.5625 23.25 C-38.39024807 6.41554591 -20.02664649 0.09026094 0 0 Z M-16.375 36.125 C-19.2697638 40.26037686 -21.5625 44.07153086 -21.5625 49.25 C-7.3725 49.25 6.8175 49.25 21.4375 49.25 C20.47474241 40.58518167 20.09921214 37.54554093 13.9375 32 C3.56334637 24.73809246 -8.11027719 27.05574665 -16.375 36.125 Z " fill="#5C89AF" transform="translate(283.5625,42.75)"/>
<path d="M0 0 C0.74765625 0.55171875 1.4953125 1.1034375 2.265625 1.671875 C3.03390625 2.22359375 3.8021875 2.7753125 4.59375 3.34375 C16.95851116 13.18509052 22.10296723 28.53327058 24.265625 43.671875 C24.265625 49.941875 24.265625 56.211875 24.265625 62.671875 C-15.334375 63.166875 -15.334375 63.166875 -55.734375 63.671875 C-51.77848328 71.58365844 -49.01980006 75.98309353 -41.046875 79.546875 C-31.75475844 82.54259598 -22.30451647 81.01618634 -13.734375 76.671875 C-11.53914855 75.15919795 -9.49637951 73.59595669 -7.48828125 71.84375 C-5.734375 70.671875 -5.734375 70.671875 -1.734375 70.671875 C0.46386719 72.41601563 0.46386719 72.41601563 2.8125 74.828125 C3.65683594 75.68535156 4.50117187 76.54257813 5.37109375 77.42578125 C6.24378906 78.33199219 7.11648438 79.23820312 8.015625 80.171875 C8.90378906 81.07808594 9.79195312 81.98429687 10.70703125 82.91796875 C12.90244056 85.16059116 15.08799887 87.41200268 17.265625 89.671875 C11.30879575 100.10895342 -1.13979059 106.20501874 -12.421875 109.421875 C-33.07873234 114.81334611 -54.5477404 112.38432845 -72.99414062 101.73925781 C-85.38001194 94.14231205 -92.47855321 81.10255944 -95.984375 67.296875 C-99.22293268 48.82834337 -96.49647302 30.70146786 -86.734375 14.671875 C-77.85551833 2.40900126 -64.96916132 -4.78525216 -50.32177734 -7.91577148 C-33.6457162 -10.57343022 -14.33495832 -9.58828338 0 0 Z M-53.109375 28.484375 C-56.21437565 32.55209932 -56.33832356 35.08766922 -57.734375 40.671875 C-43.214375 40.671875 -28.694375 40.671875 -13.734375 40.671875 C-15.83518182 30.1678409 -17.3342416 26.78626235 -25.359375 20.671875 C-36.74863067 17.29728073 -45.6425947 19.40605938 -53.109375 28.484375 Z " fill="#5C89AF" transform="translate(743.734375,51.328125)"/>
<path d="M0 0 C12.05713391 8.54705126 18.26200225 20.73769076 21.68359375 34.90234375 C23.1641991 43.78597583 22.68359375 52.89617303 22.68359375 61.90234375 C-16.91640625 62.39734375 -16.91640625 62.39734375 -57.31640625 62.90234375 C-52.44132479 71.67749038 -50.01926504 75.05091436 -41.56640625 79.27734375 C-32.22379209 81.07400032 -23.83382837 80.219931 -15.31640625 75.90234375 C-13.1211798 74.3896667 -11.07841076 72.82642544 -9.0703125 71.07421875 C-7.31640625 69.90234375 -7.31640625 69.90234375 -3.31640625 69.90234375 C-1.11816406 71.64648438 -1.11816406 71.64648438 1.23046875 74.05859375 C2.07480469 74.91582031 2.91914062 75.77304688 3.7890625 76.65625 C4.66175781 77.56246094 5.53445313 78.46867187 6.43359375 79.40234375 C7.32175781 80.30855469 8.20992187 81.21476562 9.125 82.1484375 C11.32040931 84.39105991 13.50596762 86.64247143 15.68359375 88.90234375 C11.39831728 98.08099102 0.66485542 103.19395184 -8.31640625 106.90234375 C-27.1539972 113.18972743 -48.61921175 113.23923444 -66.9765625 105.32421875 C-81.18797001 98.07982732 -89.97257691 88.19553643 -95.31640625 73.11328125 C-101.07426548 54.62515512 -99.34683156 35.51258393 -90.4206543 18.38647461 C-83.10138902 4.94991059 -71.74247145 -2.48904756 -57.41015625 -7.22265625 C-38.46084713 -12.58205681 -16.67735203 -10.47594623 0 0 Z M-53.62890625 26.58984375 C-56.82088873 30.86106386 -57.47456541 34.37682122 -59.31640625 39.90234375 C-44.79640625 39.90234375 -30.27640625 39.90234375 -15.31640625 39.90234375 C-16.33777415 31.73140054 -17.7006555 26.7368093 -24.0703125 21.4453125 C-33.98634276 15.58678105 -46.48141722 17.83460657 -53.62890625 26.58984375 Z " fill="#5C89AF" transform="translate(1285.31640625,52.09765625)"/>
<path d="M0 0 C-1.41188933 3.02308827 -2.83038351 6.04303358 -4.25 9.0625 C-4.64574219 9.91005859 -5.04148437 10.75761719 -5.44921875 11.63085938 C-7.76971419 16.55715708 -10.22715608 21.31287621 -13 26 C-17.35954619 24.62364781 -21.4605833 22.94366754 -25.625 21.0625 C-35.52155887 16.73965365 -47.45678613 12.13357873 -58.125 16.1875 C-60.2202717 17.86912953 -60.2202717 17.86912953 -60.5 20.5 C-59.91184169 23.44079155 -59.27138913 24.11507464 -57 26 C-54.9336384 26.95703081 -54.9336384 26.95703081 -52.60546875 27.6484375 C-51.73897705 27.92888916 -50.87248535 28.20934082 -49.97973633 28.49829102 C-49.05829834 28.78760498 -48.13686035 29.07691895 -47.1875 29.375 C-45.27838612 29.995295 -43.36953218 30.61639057 -41.4609375 31.23828125 C-40.52733398 31.53943848 -39.59373047 31.8405957 -38.63183594 32.15087891 C-29.12838797 35.21701917 -20.31281789 38.33649621 -12 44 C-11.071875 44.61875 -10.14375 45.2375 -9.1875 45.875 C-2.38169674 52.48635174 -0.00071265 60.09607537 0.3125 69.375 C0.07374062 79.54334047 -3.38518047 88.58219168 -10.78125 95.71875 C-22.53358397 105.15914942 -35.54667053 107.38283959 -50.1875 107.3125 C-51.38842285 107.30758545 -52.5893457 107.3026709 -53.82666016 107.29760742 C-70.56130427 107.0762497 -90.6387908 103.3612092 -103 91 C-102.62591656 87.28237371 -101.33306031 84.25682064 -99.71484375 80.91796875 C-99.04291992 79.52094727 -99.04291992 79.52094727 -98.35742188 78.09570312 C-97.88884766 77.13599609 -97.42027344 76.17628906 -96.9375 75.1875 C-96.46505859 74.20845703 -95.99261719 73.22941406 -95.50585938 72.22070312 C-94.34229316 69.81129833 -93.17353704 67.40455993 -92 65 C-88.64465594 65.73264561 -86.01473787 67.02515311 -83.02758789 68.73046875 C-70.23478624 76.00593352 -57.75511903 79.458552 -43 78 C-40.63363855 77.09790271 -40.63363855 77.09790271 -39 76 C-38.32987578 73.2140814 -38.32987578 73.2140814 -39 70 C-44.56691476 64.72846025 -52.53555064 63.11841895 -59.6875 61.125 C-87.41359482 52.96958463 -87.41359482 52.96958463 -94.26953125 40.734375 C-98.77517817 31.11808264 -99.38553744 21.48690241 -95.96875 11.37890625 C-91.88175799 1.3427041 -84.60175202 -5.41711436 -74.80859375 -9.93359375 C-50.64451062 -19.1085516 -21.24240237 -14.04082033 0 0 Z " fill="#5C89AF" transform="translate(1419,56)"/>
<path d="M0 0 C5.97166932 4.68835929 10.91374065 9.59819369 15 16 C13.5038344 19.99341791 11.31859527 21.3394932 7.6953125 23.453125 C6.10783203 24.38125 6.10783203 24.38125 4.48828125 25.328125 C2.82345703 26.27945313 2.82345703 26.27945313 1.125 27.25 C0.02285156 27.8996875 -1.07929687 28.549375 -2.21484375 29.21875 C-10.48158482 34 -10.48158482 34 -15 34 C-15.556875 33.278125 -16.11375 32.55625 -16.6875 31.8125 C-21.12062707 26.42085896 -26.68297066 23.87905097 -33.5625 23 C-40.343336 22.67800499 -44.69675253 24.44973728 -50.25 28.1875 C-56.2581837 34.33223333 -58.13346485 41.1290022 -58.3125 49.5625 C-58.22436533 57.27027768 -57.28351028 64.12964958 -52.1640625 70.1640625 C-46.7429342 75.21131988 -41.68403556 77.48065405 -34.14453125 77.25 C-26.03596399 76.30473897 -20.25360949 73.01278504 -15.125 66.6875 C-14.75375 66.130625 -14.3825 65.57375 -14 65 C-9.81238337 66.28060018 -6.17943621 67.86346914 -2.3828125 70.0390625 C-1.36445312 70.61914062 -0.34609375 71.19921875 0.703125 71.796875 C1.74984375 72.40015625 2.7965625 73.0034375 3.875 73.625 C4.94492187 74.23601562 6.01484375 74.84703125 7.1171875 75.4765625 C9.74755755 76.9796311 12.37500926 78.48756286 15 80 C13.43237036 88.67142491 7.05210488 95.00945294 0 100 C-16.5118043 109.94414149 -35.71395166 112.90068268 -54.59179688 108.81762695 C-70.060498 104.9745983 -82.37619966 97.21047224 -91.01953125 83.58203125 C-100.07577518 68.0859832 -101.0028238 49.04687856 -97.171875 31.84375 C-92.99413337 16.9210419 -84.41222879 4.833353 -71 -3 C-48.99776124 -13.85750163 -20.67125797 -14.02914204 0 0 Z " fill="#5C89AF" transform="translate(876,53)"/>
<path d="M0 0 C13.2 0 26.4 0 40 0 C40 53.46 40 106.92 40 162 C26.8 162 13.6 162 0 162 C0 108.54 0 55.08 0 0 Z " fill="#5C88AF" transform="translate(163,0)"/>
<path d="M0 0 C2.97 0 5.94 0 9 0 C9.33 2.64 9.66 5.28 10 8 C10.680625 7.236875 11.36125 6.47375 12.0625 5.6875 C18.55606465 -0.25342085 24.04123608 -0.34170985 32.59765625 -0.3984375 C39.01354645 0.3529067 42.71745038 3.36057124 47 8 C47.66 8.66 48.32 9.32 49 10 C49.35191406 9.52949219 49.70382812 9.05898437 50.06640625 8.57421875 C53.441296 4.31815674 56.49460558 1.05086076 62 0 C69.69306438 -0.76415483 77.09342608 -1.40045238 83.484375 3.50390625 C87.46994859 7.43811935 89.78471043 11.42019962 90.12025452 16.99957275 C90.11803391 17.70128601 90.11581329 18.40299927 90.11352539 19.12597656 C90.11341209 20.32676849 90.11341209 20.32676849 90.11329651 21.55181885 C90.10813522 22.40612488 90.10297394 23.26043091 90.09765625 24.140625 C90.0962413 25.02280701 90.09482635 25.90498901 90.09336853 26.81390381 C90.08778001 29.62597065 90.07522961 32.4379573 90.0625 35.25 C90.05748352 37.15885302 90.05292087 39.06770728 90.04882812 40.9765625 C90.03781434 45.65107247 90.02055758 50.32552265 90 55 C87.03 55 84.06 55 81 55 C80.9906543 53.91058105 80.98130859 52.82116211 80.97167969 51.69873047 C80.93167019 47.63923946 80.86588171 43.58049759 80.79248047 39.52148438 C80.76433416 37.76800188 80.74308815 36.01439401 80.72900391 34.26074219 C80.70748573 31.73307401 80.66079298 29.20690316 80.609375 26.6796875 C80.60814636 25.90132538 80.60691772 25.12296326 80.60565186 24.3210144 C80.46745581 19.13259296 79.44490181 16.10296041 76 12 C71.48475445 9.308219 68.00559213 8.51547582 62.921875 9.421875 C58.12829632 10.86384582 54.58832419 13.77694474 52 18 C50.79838489 21.60484534 50.76982864 24.97289857 50.68359375 28.73046875 C50.66281265 29.48088943 50.64203156 30.23131012 50.62062073 31.00447083 C50.55530074 33.39872184 50.49632208 35.79308139 50.4375 38.1875 C50.39429807 39.81186013 50.35068324 41.43620933 50.30664062 43.06054688 C50.19963737 47.04025371 50.09832063 51.02006958 50 55 C47.03 55 44.06 55 41 55 C40.98541748 54.04746338 40.97083496 53.09492676 40.95581055 52.11352539 C40.8973311 48.5404115 40.82010727 44.96789553 40.73754883 41.39526367 C40.70453079 39.85630074 40.67642878 38.31722344 40.65356445 36.77807617 C40.55337203 24.56980106 40.55337203 24.56980106 37 13 C33.09772379 9.75530884 29.43050558 8.6754912 24.375 9 C19.04328244 9.91926165 15.39032908 12.08230471 12.1875 16.5 C10.01178225 21.08045843 9.80705145 25.37241722 9.68359375 30.390625 C9.66281265 31.09523865 9.64203156 31.79985229 9.62062073 32.52581787 C9.55546163 34.76711681 9.49639752 37.00852864 9.4375 39.25 C9.39428274 40.77344897 9.35066743 42.29688671 9.30664062 43.8203125 C9.19981509 47.54675591 9.09845361 51.27332494 9 55 C6.03 55 3.06 55 0 55 C0 36.85 0 18.7 0 0 Z " fill="#5AAA3F" transform="translate(1190,245)"/>
<path d="M0 0 C2.64 0 5.28 0 8 0 C8.33 2.64 8.66 5.28 9 8 C9.44730469 7.59007812 9.89460938 7.18015625 10.35546875 6.7578125 C10.96003906 6.21898437 11.56460937 5.68015625 12.1875 5.125 C12.77917969 4.59132812 13.37085938 4.05765625 13.98046875 3.5078125 C20.25449627 -1.1764711 27.50157951 -0.68629611 35 0 C40.39463716 1.52834284 43.97630889 4.21248908 47 9 C47 9.66 47 10.32 47 11 C47.66 11 48.32 11 49 11 C49.165 10.278125 49.33 9.55625 49.5 8.8125 C52.07036622 3.99306334 56.92842885 1.69052372 62 0 C69.83610839 -0.60737308 77.61188729 -1.19437448 84 4 C89.73351508 10.63880694 90.3080723 18.4852311 90.1953125 26.875 C90.1924826 27.68493408 90.18965271 28.49486816 90.18673706 29.3293457 C90.17564715 31.88638834 90.15056452 34.44306535 90.125 37 C90.1149557 38.74608865 90.1058324 40.49218285 90.09765625 42.23828125 C90.07574466 46.49232585 90.04129382 50.74610119 90 55 C87.03 55 84.06 55 81 55 C80.98541748 54.01193359 80.97083496 53.02386719 80.95581055 52.00585938 C80.89743665 48.30791687 80.82020976 44.61055864 80.73754883 40.91308594 C80.70448202 39.31878202 80.67639441 37.72436617 80.65356445 36.12988281 C80.61967928 33.82569073 80.56735263 31.52250775 80.51171875 29.21875 C80.50532883 28.51633179 80.4989389 27.81391357 80.49235535 27.09020996 C80.33007811 21.51457701 79.41738657 15.36816377 75.2734375 11.30859375 C69.95214301 8.86692982 65.67717219 8.37044132 60 10 C55.0655404 12.4672298 53.01986799 14.8971756 51 20 C49.82158683 23.69661622 49.79440761 27.30922056 49.68359375 31.171875 C49.66281265 31.8542926 49.64203156 32.53671021 49.62062073 33.23980713 C49.55547948 35.40977356 49.49640596 37.57985624 49.4375 39.75 C49.39428103 41.22527221 49.35066568 42.70053287 49.30664062 44.17578125 C49.19983482 47.78373166 49.09846847 51.39181133 49 55 C46.03 55 43.06 55 40 55 C39.98541748 53.94087402 39.97083496 52.88174805 39.95581055 51.79052734 C39.89762673 47.84292658 39.82039593 43.89588429 39.73754883 39.94873047 C39.70439364 38.24374488 39.67633263 36.53865202 39.65356445 34.83349609 C39.61984432 32.37551366 39.56752206 29.91850594 39.51171875 27.4609375 C39.50532883 26.70444916 39.4989389 25.94796082 39.49235535 25.16854858 C39.34040977 19.63936839 38.17785474 15.42914567 34.375 11.1875 C29.34434534 8.67217267 24.60757926 8.54451921 19.25 10.0625 C14.40011363 12.95377841 11.71173625 15.87998846 9.90234375 21.26953125 C8.40072022 27.72807122 8.53008614 34.40237721 8.375 41 C8.33674348 42.36069998 8.29768752 43.72137774 8.2578125 45.08203125 C8.16402932 48.3878882 8.07832611 51.69374674 8 55 C5.36 55 2.72 55 0 55 C0 36.85 0 18.7 0 0 Z " fill="#5AAA40" transform="translate(1536,245)"/>
<path d="M0 0 C6.65441812 4.01944719 9.11043482 8.53535913 11.125 15.9375 C12.24500817 20.59079363 12.3125 23.94522277 12.3125 28.9375 C-2.2075 28.9375 -16.7275 28.9375 -31.6875 28.9375 C-28.08747416 37.62529895 -28.08747416 37.62529895 -21.6875 42.9375 C-16.23957644 44.75347452 -9.71468324 45.00993206 -4.26171875 43.078125 C-2.95348432 42.39813874 -1.66392045 41.67965198 -0.40625 40.91015625 C1.50832347 39.82668172 3.14061937 39.27783593 5.3125 38.9375 C7.125 40.125 7.125 40.125 8.3125 41.9375 C8.05177548 44.53953073 7.67343951 45.62566205 5.67578125 47.3515625 C4.99902344 47.75117188 4.32226562 48.15078125 3.625 48.5625 C2.96113281 48.96726562 2.29726562 49.37203125 1.61328125 49.7890625 C-6.15264601 53.66543366 -14.96531768 54.46948803 -23.38671875 52.21484375 C-30.69184588 49.15140334 -35.58188219 45.05685677 -38.92578125 37.8046875 C-41.81724757 30.71688801 -42.02114648 20.77005155 -39.5625 13.4375 C-35.93467914 6.66556774 -31.82431696 2.05144548 -24.7265625 -1.17578125 C-16.7439384 -3.50490165 -7.63357836 -3.43453974 0 0 Z M-26.296875 9.3359375 C-29.87702527 13.48469987 -31.6875 16.49065614 -31.6875 21.9375 C-20.1375 21.9375 -8.5875 21.9375 3.3125 21.9375 C2.29981985 14.57241552 2.29981985 14.57241552 -1.6875 8.9375 C-9.16805004 4.00713747 -19.2086872 3.17678402 -26.296875 9.3359375 Z " fill="#5AAA40" transform="translate(1067.6875,247.0625)"/>
<path d="M0 0 C6.02835337 4.8452186 8.91884956 11.18532468 10.08984375 18.6796875 C10.08984375 21.6496875 10.08984375 24.6196875 10.08984375 27.6796875 C-4.43015625 27.6796875 -18.95015625 27.6796875 -33.91015625 27.6796875 C-30.13254456 36.45408675 -30.13254456 36.45408675 -23.91015625 41.6796875 C-18.46223269 43.49566202 -11.93733949 43.75211956 -6.484375 41.8203125 C-5.17614057 41.14032624 -3.8865767 40.42183948 -2.62890625 39.65234375 C-0.71433278 38.56886922 0.91796312 38.02002343 3.08984375 37.6796875 C4.90234375 38.8671875 4.90234375 38.8671875 6.08984375 40.6796875 C5.80406969 43.09665794 5.42114954 44.34089457 3.70703125 46.09375 C-4.37459294 51.71102242 -12.21365204 52.44867916 -21.91015625 51.6796875 C-24.84687093 51.06041323 -27.28037286 50.11358705 -29.91015625 48.6796875 C-30.83248047 48.18662109 -30.83248047 48.18662109 -31.7734375 47.68359375 C-37.37324846 44.21818611 -40.50290904 38.99049541 -42.52734375 32.7890625 C-44.1398948 23.90357714 -43.65366632 14.38570437 -38.62109375 6.71484375 C-29.64507865 -4.63717535 -12.46248723 -7.34063308 0 0 Z M-28.72265625 8.4296875 C-32.14589434 11.9507324 -33.91015625 15.75432198 -33.91015625 20.6796875 C-22.03015625 20.6796875 -10.15015625 20.6796875 2.08984375 20.6796875 C-0.78824656 12.04541657 -1.84802436 9.38777543 -8.91015625 4.6796875 C-16.56662647 2.67118545 -22.17012695 4.35255816 -28.72265625 8.4296875 Z " fill="#5AAA40" transform="translate(1679.91015625,248.3203125)"/>
<path d="M0 0 C6.02835337 4.8452186 8.91884956 11.18532468 10.08984375 18.6796875 C10.08984375 21.6496875 10.08984375 24.6196875 10.08984375 27.6796875 C-4.43015625 27.6796875 -18.95015625 27.6796875 -33.91015625 27.6796875 C-30.13254456 36.45408675 -30.13254456 36.45408675 -23.91015625 41.6796875 C-18.46223269 43.49566202 -11.93733949 43.75211956 -6.484375 41.8203125 C-5.17614057 41.14032624 -3.8865767 40.42183948 -2.62890625 39.65234375 C-0.71433278 38.56886922 0.91796312 38.02002343 3.08984375 37.6796875 C4.90234375 38.8671875 4.90234375 38.8671875 6.08984375 40.6796875 C5.80406969 43.09665794 5.42114954 44.34089457 3.70703125 46.09375 C-4.37459294 51.71102242 -12.21365204 52.44867916 -21.91015625 51.6796875 C-24.84687093 51.06041323 -27.28037286 50.11358705 -29.91015625 48.6796875 C-30.83248047 48.18662109 -30.83248047 48.18662109 -31.7734375 47.68359375 C-37.37324846 44.21818611 -40.50290904 38.99049541 -42.52734375 32.7890625 C-44.1398948 23.90357714 -43.65366632 14.38570437 -38.62109375 6.71484375 C-29.64507865 -4.63717535 -12.46248723 -7.34063308 0 0 Z M-28.72265625 8.4296875 C-32.14589434 11.9507324 -33.91015625 15.75432198 -33.91015625 20.6796875 C-22.03015625 20.6796875 -10.15015625 20.6796875 2.08984375 20.6796875 C-0.16764749 12.55515266 -0.16764749 12.55515266 -4.91015625 6.6796875 C-13.74799264 2.65211262 -20.56426041 3.35335231 -28.72265625 8.4296875 Z " fill="#5AAA40" transform="translate(978.91015625,248.3203125)"/>
<path d="M0 0 C5.46204744 3.96544644 7.79677245 9.4232963 9.640625 15.79296875 C10.09886543 19.64218833 9.953125 23.54156891 9.953125 27.41796875 C-4.566875 27.41796875 -19.086875 27.41796875 -34.046875 27.41796875 C-30.26926331 36.192368 -30.26926331 36.192368 -24.046875 41.41796875 C-18.59895144 43.23394327 -12.07405824 43.49040081 -6.62109375 41.55859375 C-5.31285932 40.87860749 -4.02329545 40.16012073 -2.765625 39.390625 C-0.85105153 38.30715047 0.78124437 37.75830468 2.953125 37.41796875 C4.765625 38.60546875 4.765625 38.60546875 5.953125 40.41796875 C5.66735094 42.83493919 5.28443079 44.07917582 3.5703125 45.83203125 C-4.45411754 51.40954989 -12.39981738 52.35635395 -22.046875 51.41796875 C-28.52665657 49.71691648 -34.67298039 47.07687754 -38.41796875 41.3046875 C-43.30782928 32.84093457 -44.76098209 24.24644972 -42.328125 14.5546875 C-39.22339826 6.30462734 -34.98383544 1.31429479 -27.046875 -2.58203125 C-18.32958348 -5.44930815 -7.8327004 -4.62959279 0 0 Z M-28.859375 8.73046875 C-31.86182359 12.41919131 -34.046875 15.57966351 -34.046875 20.41796875 C-22.166875 20.41796875 -10.286875 20.41796875 1.953125 20.41796875 C0.07888293 12.17883692 0.07888293 12.17883692 -5.046875 6.41796875 C-13.64879721 2.34741627 -21.40559101 2.60180192 -28.859375 8.73046875 Z " fill="#5AAA40" transform="translate(1513.046875,248.58203125)"/>
<path d="M0 0 C3.3 0 6.6 0 10 0 C15.75200429 13.94638227 21.41608002 27.92357887 26.88024902 41.98532104 C27.41842863 43.37013864 27.95773568 44.7545186 28.49816895 46.13845825 C29.2563274 48.08180175 30.00980179 50.02689066 30.76171875 51.97265625 C31.19444092 53.08906494 31.62716309 54.20547363 32.07299805 55.35571289 C33 58 33 58 33 60 C33.66 60 34.32 60 35 60 C35.12100571 59.29083939 35.24201141 58.58167877 35.36668396 57.85102844 C36.03032862 54.86346821 36.99114457 52.22201207 38.13305664 49.38354492 C38.79362816 47.73239937 38.79362816 47.73239937 39.46754456 46.04789734 C39.94360641 44.8706459 40.41966827 43.69339447 40.91015625 42.48046875 C41.39705429 41.26676102 41.88395233 40.05305328 42.38560486 38.80256653 C43.67560048 35.58708999 44.97076178 32.3737191 46.26702881 29.1607666 C47.59066518 25.87731967 48.9093794 22.59189746 50.22851562 19.30664062 C52.81421053 12.8691577 55.40537086 6.43388698 58 0 C61.3 0 64.6 0 68 0 C65.1984607 9.00200496 61.56413076 17.655485 58 26.375 C57.33039386 28.01902095 56.66104395 29.66314628 55.99194336 31.30737305 C54.31607055 35.42392263 52.63705211 39.53918088 50.95721436 43.65411377 C49.49142589 47.24638436 48.02882797 50.83995153 46.56640625 54.43359375 C44.04703867 60.62352621 41.52447532 66.81214884 39 73 C35.7 73 32.4 73 29 73 C22.28481548 57.45449574 15.85290651 41.80344124 9.55023193 26.08651733 C8.72361999 24.02520501 7.89585691 21.96435395 7.06695557 19.90396118 C5.89111074 16.97914037 4.72014235 14.05241814 3.55078125 11.125 C3.1919133 10.23338669 2.83304535 9.34177338 2.46330261 8.42314148 C2.13808121 7.60545792 1.8128598 6.78777435 1.4777832 5.9453125 C1.19119339 5.22875488 0.90460358 4.51219727 0.60932922 3.77392578 C0 2 0 2 0 0 Z " fill="#5AAA41" transform="translate(780,227)"/>
<path d="M0 0 C1.36125 0.8353125 1.36125 0.8353125 2.75 1.6875 C9.81034587 8.94396659 11.38326432 16.81282239 11.2734375 26.609375 C10.65826829 34.23747321 7.74600928 40.40585397 2.03125 45.52734375 C-5.6646656 51.10688256 -13.70266634 51.9448984 -23 51 C-29.5347024 49.80378368 -34.67699087 47.08652566 -39 42 C-44.28975069 34.31204627 -45.7418804 26.3102471 -44.66015625 17.109375 C-42.92241417 8.9771964 -38.6834795 3.45196696 -32.0390625 -1.4453125 C-22.68156999 -6.57221453 -8.84060934 -5.65090174 0 0 Z M-32.73828125 12.1171875 C-36.11470154 17.15568465 -36.33930402 22.07020367 -35.46484375 27.8671875 C-34.04034264 34.40313375 -30.3379433 38.27557138 -25 42 C-19.22287021 43.92570993 -13.1900706 43.90187619 -7.625 41.3125 C-3.24117996 38.79357114 -0.84335163 35.85537359 1.25 31.25 C2.87923695 24.18997321 2.59500815 18.44622151 -1 12 C-4.71708 7.57968865 -8.51084025 4.41551168 -14.39453125 3.71484375 C-22.60415183 3.43175339 -27.61118229 5.68476413 -32.73828125 12.1171875 Z " fill="#5AAA40" transform="translate(1336,249)"/>
<path d="M0 0 C2.97 0 5.94 0 9 0 C9.33 2.64 9.66 5.28 10 8 C10.44730469 7.59007812 10.89460938 7.18015625 11.35546875 6.7578125 C11.96003906 6.21898437 12.56460937 5.68015625 13.1875 5.125 C13.77917969 4.59132812 14.37085938 4.05765625 14.98046875 3.5078125 C21.48081346 -1.34544293 29.28680048 -0.63935129 37 0 C42.16807237 1.23533349 44.99990475 3.56006932 47.9375 7.9375 C51.27375926 13.62610477 51.13869738 19.39648288 51.09765625 25.80078125 C51.0962413 26.63715622 51.09482635 27.47353119 51.09336853 28.33525085 C51.08779184 30.994371 51.07524365 33.6534055 51.0625 36.3125 C51.05748199 38.12044149 51.05291961 39.9283843 51.04882812 41.73632812 C51.03783004 46.15758484 51.0205815 50.57877793 51 55 C48.03 55 45.06 55 42 55 C41.98598145 53.47246094 41.98598145 53.47246094 41.97167969 51.9140625 C41.93154381 48.1042242 41.86572237 44.29517355 41.79248047 40.48583984 C41.76440669 38.84303981 41.74312505 37.20010811 41.72900391 35.55712891 C41.70738379 33.18324027 41.6606424 30.81091208 41.609375 28.4375 C41.60814636 27.71320801 41.60691772 26.98891602 41.60565186 26.24267578 C41.45562971 20.91604686 40.20184269 16.3436757 37 12 C33.15147038 9.50632964 29.43115715 8.73082572 24.875 9.0625 C19.93083053 10.25867003 16.77022656 12.16655107 13.25 15.8125 C10.30546585 20.96543476 9.7362256 26.40990579 9.5859375 32.24609375 C9.56657135 32.90207047 9.5472052 33.55804718 9.5272522 34.23390198 C9.46811091 36.30164128 9.42133771 38.36943829 9.375 40.4375 C9.33675967 41.85093394 9.29770455 43.26434609 9.2578125 44.67773438 C9.16246548 48.11828852 9.07819713 51.55900839 9 55 C6.03 55 3.06 55 0 55 C0 36.85 0 18.7 0 0 Z " fill="#5AAA3F" transform="translate(1702,245)"/>
<path d="M0 0 C2.97 0 5.94 0 9 0 C9.33 2.64 9.66 5.28 10 8 C10.44730469 7.59007812 10.89460938 7.18015625 11.35546875 6.7578125 C11.96003906 6.21898437 12.56460937 5.68015625 13.1875 5.125 C13.77917969 4.59132812 14.37085938 4.05765625 14.98046875 3.5078125 C19.60457327 0.0553863 23.74670122 -0.29530725 29.4375 -0.3125 C30.71496094 -0.32925781 31.99242187 -0.34601563 33.30859375 -0.36328125 C38.67185779 0.16453204 42.6816046 2.0664404 46.25 6.125 C46.96929688 6.90230469 46.96929688 6.90230469 47.703125 7.6953125 C51.11643985 13.76114311 51.29013469 20.94710726 51.1953125 27.75390625 C51.1924826 28.54022934 51.18965271 29.32655243 51.18673706 30.13670349 C51.17567289 32.61213359 51.15059591 35.08718199 51.125 37.5625 C51.11495234 39.2558541 51.10582965 40.94921395 51.09765625 42.64257812 C51.07577898 46.76186253 51.04134718 50.88086689 51 55 C48.03 55 45.06 55 42 55 C41.970271 53.55548462 41.970271 53.55548462 41.93994141 52.08178711 C41.86342821 48.48274151 41.77478439 44.88407631 41.68261719 41.28540039 C41.64451516 39.73274284 41.60963072 38.18000267 41.578125 36.62719727 C41.53206315 34.38528053 41.47414122 32.14392355 41.4140625 29.90234375 C41.40251129 29.21663803 41.39096008 28.53093231 41.37905884 27.82444763 C41.21416023 22.34581033 40.62059615 17.14150205 37.25 12.6875 C33.33599674 9.75199755 29.83858898 8.74427048 25 9.1875 C20.61294334 9.93262985 16.59048599 10.90137152 13.77734375 14.61328125 C10.41294595 20.24472846 9.8691176 24.70504367 9.68359375 31.171875 C9.66281265 31.8542926 9.64203156 32.53671021 9.62062073 33.23980713 C9.55547948 35.40977356 9.49640596 37.57985624 9.4375 39.75 C9.39428103 41.22527221 9.35066568 42.70053287 9.30664062 44.17578125 C9.19983482 47.78373166 9.09846847 51.39181133 9 55 C6.03 55 3.06 55 0 55 C0 36.85 0 18.7 0 0 Z " fill="#5AAA3F" transform="translate(1092,245)"/>
<path d="M0 0 C2.97 0 5.94 0 9 0 C9.01401855 1.52753906 9.01401855 1.52753906 9.02832031 3.0859375 C9.06845619 6.8957758 9.13427763 10.70482645 9.20751953 14.51416016 C9.23559331 16.15696019 9.25687495 17.79989189 9.27099609 19.44287109 C9.29261621 21.81675973 9.3393576 24.18908792 9.390625 26.5625 C9.39185364 27.28679199 9.39308228 28.01108398 9.39434814 28.75732422 C9.54370453 34.06031496 10.75761067 38.70353591 14 43 C18.71890339 45.87403583 23.63305768 45.62315731 29 45 C33.90051184 42.6833944 36.40025672 39.71805262 39 35 C40.0432311 30.99101812 40.19337245 27.07963927 40.31640625 22.94921875 C40.33718735 22.29041214 40.35796844 21.63160553 40.37937927 20.95283508 C40.44435489 18.86448815 40.50351575 16.77602388 40.5625 14.6875 C40.60573479 13.2649622 40.6493506 11.84243594 40.69335938 10.41992188 C40.79998216 6.94673703 40.90139348 3.47342274 41 0 C43.97 0 46.94 0 50 0 C50 18.15 50 36.3 50 55 C47.03 55 44.06 55 41 55 C40.505 51.04 40.505 51.04 40 47 C39.34644531 47.61488281 39.34644531 47.61488281 38.6796875 48.2421875 C32.07790462 54.21522915 26.76930599 55.43947467 17.90234375 55.2421875 C11.29401315 54.69075211 7.50630397 52.00056001 3.26171875 47.01171875 C-0.18238212 41.5203505 -0.27388983 36.14086422 -0.1953125 29.8828125 C-0.1924826 29.02565643 -0.18965271 28.16850037 -0.18673706 27.28536987 C-0.17559999 24.56510068 -0.1505076 21.84516859 -0.125 19.125 C-0.11496182 17.27344228 -0.10583744 15.42187936 -0.09765625 13.5703125 C-0.07568188 9.0467464 -0.041197 4.52343023 0 0 Z " fill="#5AAA3F" transform="translate(1358,245)"/>
<path d="M0 0 C3.3 0 6.6 0 10 0 C12.14252352 5.63931944 14.2785969 11.28102292 16.40869141 16.92504883 C17.13445451 18.84531734 17.86198549 20.76491865 18.59130859 22.68383789 C19.63843213 25.43983854 20.67920487 28.19816464 21.71875 30.95703125 C22.04685669 31.81649857 22.37496338 32.67596588 22.7130127 33.56147766 C23.16347961 34.76238289 23.16347961 34.76238289 23.62304688 35.98754883 C23.88952026 36.6914827 24.15599365 37.39541656 24.43054199 38.12068176 C25 40 25 40 25 43 C25.66 43 26.32 43 27 43 C27.14477783 42.39953857 27.28955566 41.79907715 27.4387207 41.18041992 C29.70851628 32.3057903 32.92645324 23.85688153 36.1875 15.3125 C36.75241681 13.8211391 37.31687324 12.32960373 37.88085938 10.83789062 C39.24861517 7.22323015 40.62255115 3.61097723 42 0 C45.3 0 48.6 0 52 0 C49.81572912 6.74616441 47.36914667 13.3452416 44.76953125 19.94140625 C44.1766053 21.45383156 44.1766053 21.45383156 43.57170105 22.99681091 C42.32077419 26.18621881 41.0666905 29.37437426 39.8125 32.5625 C38.95877467 34.73754791 38.10525697 36.91267733 37.25195312 39.08789062 C35.1703683 44.39287255 33.08595328 49.69673434 31 55 C27.7 55 24.4 55 21 55 C18.2558063 48.2743409 15.51723067 41.5464238 12.78582001 34.81556225 C11.51736248 31.69028065 10.24697746 28.56581184 8.97216797 25.44311523 C7.507806 21.85336493 6.05012423 18.26096581 4.59375 14.66796875 C4.13440063 13.54601608 3.67505127 12.42406342 3.20178223 11.26811218 C2.78134644 10.22725967 2.36091064 9.18640717 1.92773438 8.11401367 C1.55467163 7.19690109 1.18160889 6.27978851 0.79724121 5.33488464 C0 3 0 3 0 0 Z " fill="#5AAA41" transform="translate(1417,245)"/>
<path d="M0 0 C2.97 0 5.94 0 9 0 C9 4.62 9 9.24 9 14 C14.61 14 20.22 14 26 14 C26 16.31 26 18.62 26 21 C20.39 21 14.78 21 9 21 C9.0971647 25.32382916 9.20003208 29.64675033 9.31738281 33.9699707 C9.35555952 35.43928862 9.39043182 36.90869639 9.421875 38.37817383 C9.46777289 40.49593114 9.52572372 42.6130759 9.5859375 44.73046875 C9.63306885 46.63928833 9.63306885 46.63928833 9.68115234 48.58666992 C9.9855239 51.84503035 10.44342194 54.13207647 12 57 C16.76707449 58.66293296 20.32656632 57.58896745 25 56 C26.76462683 59.08809695 27 60.23312136 27 64 C21.02010255 67.18927864 15.73768512 67.76137928 9 67 C4.74067225 65.3140161 2.91916355 63.12620163 1 59 C0.03001751 54.43201588 -0.11630451 50.07612758 -0.09765625 45.4140625 C-0.0962413 44.71227875 -0.09482635 44.010495 -0.09336853 43.28744507 C-0.0878129 41.06658496 -0.07526892 38.84582916 -0.0625 36.625 C-0.05747926 35.11067855 -0.05291736 33.5963555 -0.04882812 32.08203125 C-0.03785807 28.38798748 -0.02062449 24.69400394 0 21 C-2.31 21 -4.62 21 -7 21 C-7 18.69 -7 16.38 -7 14 C-4.69 14 -2.38 14 0 14 C0 9.38 0 4.76 0 0 Z " fill="#5AAA3F" transform="translate(1771,233)"/>
<path d="M0 0 C2.97 0 5.94 0 9 0 C9 25.41 9 50.82 9 77 C6.03 77 3.06 77 0 77 C0 51.59 0 26.18 0 0 Z " fill="#5AAA3E" transform="translate(913,223)"/>
<path d="M0 0 C2.97 0 5.94 0 9 0 C9 25.41 9 50.82 9 77 C6.03 77 3.06 77 0 77 C0 51.59 0 26.18 0 0 Z " fill="#5AAA3E" transform="translate(885,223)"/>
<path d="M0 0 C2.97 0 5.94 0 9 0 C9 18.15 9 36.3 9 55 C6.03 55 3.06 55 0 55 C0 36.85 0 18.7 0 0 Z " fill="#5AAA3E" transform="translate(857,245)"/>
<path d="M0 0 C1.39935013 2.79870027 1.25265405 4.90498792 1 8 C-0.0625 9.9375 -0.0625 9.9375 -2 11 C-5.625 10.8125 -5.625 10.8125 -9 10 C-10.39935013 7.20129973 -10.25265405 5.09501208 -10 2 C-7.65446208 -2.27715738 -4.20919664 -1.01332512 0 0 Z " fill="#5AAA41" transform="translate(866,225)"/>
</svg>
